<svg width="70" height="92" viewBox="0 0 70 92" fill="none" xmlns="http://www.w3.org/2000/svg">
<path d="M38.2799 0.150019C44.0481 0.121822 48.6407 0.97336 52.0577 2.70463C56.1756 4.78208 59.336 7.65081 61.5389 11.3108C63.8291 14.9704 64.9854 19.0725 65.0076 23.6171C65.0285 27.8996 63.9118 31.8817 61.6574 35.5634C59.4026 39.1578 56.3139 42.0134 52.3913 44.1301C57.1189 45.7676 61.1095 48.6323 64.3633 52.7241C67.6171 56.816 69.2566 61.4401 69.2818 66.5965C69.304 71.1412 68.1446 75.342 65.8037 79.199C63.5498 82.9682 60.5054 85.9546 56.6706 88.1583C54.753 89.2165 52.6156 90.0135 50.2585 90.5495C47.9013 91.0854 44.7563 91.3629 40.8234 91.3822L0.446056 91.5796L1.60316e-05 0.337151L38.2799 0.150019Z" fill="#4C5270"/>
</svg>
